<svg width="181" height="64" viewBox="0 0 181 64" fill="none" xmlns="http://www.w3.org/2000/svg">
<path fill-rule="evenodd" clip-rule="evenodd" d="M25.5 0C11.6929 0 0.5 11.1929 0.5 25C0.5 38.8071 11.6929 50 25.5 50H83.5L90.5 64L97.5 50H155.5C169.307 50 180.5 38.8071 180.5 25C180.5 11.1929 169.307 0 155.5 0H25.5Z" fill="url(#paint0_linear_6098_64559)"/>
<path d="M47.5204 33.232C45.8164 33.712 43.5124 33.736 41.3764 33.136C40.1764 32.728 38.2324 31.6 37.1764 30.424L40.0084 27.352C42.4084 29.032 44.2804 29.752 45.6484 29.416C46.8964 29.104 47.1604 27.664 46.0804 26.968C44.8564 26.128 43.6324 25.864 41.4724 24.712C38.4244 23.008 37.6564 20.44 38.7124 18.376C39.7924 16.096 42.1204 14.896 44.8564 14.896C47.5684 14.896 49.8244 15.904 51.3844 17.584L48.6004 20.68C47.4244 19.672 45.6724 18.952 44.5204 18.952C43.8484 18.952 43.2004 19.336 43.2004 20.128C43.2004 20.896 44.1364 21.496 46.7284 22.768C49.9924 24.256 51.2164 25.744 51.4564 27.544C51.8884 30.112 50.5204 32.392 47.5204 33.232ZM52.9337 26.608C52.9337 22.192 55.6217 19.456 59.5097 19.456C63.4937 19.456 65.7977 22.384 65.7977 26.656L65.7017 27.976H57.0377C57.1337 29.2 58.3097 29.872 59.6777 29.872C60.9257 29.872 61.7897 29.368 62.5577 28.432L65.2697 30.784C63.8537 32.728 61.9337 33.616 59.5097 33.616C55.6457 33.616 52.8617 30.928 52.9337 26.608ZM61.7417 24.76C61.5737 23.656 60.6137 23.128 59.5337 23.128C58.3337 23.128 57.4217 23.728 57.2777 24.76H61.7417ZM76.786 33.136V31.984C75.994 32.8 74.746 33.304 73.354 33.304C69.85 33.304 67.018 31.144 67.138 26.464C67.282 21.736 70.258 19.528 73.522 19.672C74.914 19.744 76.066 20.368 76.786 21.136V19.936H80.938V33.136H76.786ZM73.858 29.632C75.274 29.632 76.354 28.96 76.642 27.496C76.666 27.4 76.69 26.944 76.69 26.848C76.69 24.592 75.49 23.344 73.954 23.344C72.658 23.272 71.29 24.304 71.29 26.464C71.29 28.552 72.394 29.632 73.858 29.632ZM90.7656 33.352C89.4936 33.712 87.9336 33.664 86.1336 33.376C84.8856 33.136 83.4696 32.512 82.2216 31.648L83.9016 28.384C85.4616 29.2 86.9256 29.8 88.3176 29.992C89.2056 30.184 89.3976 29.104 88.6056 28.768C87.5736 28.264 86.2056 28 84.5496 26.992C82.9656 26.032 82.1736 24.064 82.9896 22.144C83.5896 20.56 85.0536 19.528 87.7176 19.432C89.8536 19.36 91.6776 19.984 93.4776 21.376L91.3176 24.376C89.9976 23.56 88.9656 23.224 87.9576 23.152C87.4056 23.08 87.0936 24.016 87.6696 24.328C88.6536 24.88 90.0696 25.168 91.4136 25.888C93.1896 26.8 94.0296 28.216 93.7656 30.064C93.5496 31.864 92.4216 32.872 90.7656 33.352ZM101.989 29.656C103.597 29.656 105.061 28.624 105.061 26.512C105.061 24.496 103.597 23.368 101.989 23.368C100.429 23.368 99.0132 24.496 99.0132 26.512C99.0132 28.624 100.429 29.656 101.989 29.656ZM102.037 33.448C97.8372 33.448 94.8612 30.688 94.8612 26.512C94.8612 22.168 98.1012 19.576 102.037 19.576C105.973 19.576 109.213 22.168 109.213 26.512C109.213 30.688 106.237 33.448 102.037 33.448ZM110.784 33.136V19.936H114.984V20.704C115.584 20.2 116.784 19.72 117.936 19.624H118.32C121.536 19.624 123.024 21.784 123.048 25.072V33.136H118.848V26.872C118.848 24.112 118.176 23.632 117 23.68C116.088 23.728 115.68 23.968 114.984 24.496V33.136H110.784ZM131.083 33.136V30.184C133.531 27.952 134.827 26.776 136.747 24.64C138.307 22.888 138.955 21.64 138.859 20.728C138.787 19.696 137.851 19.072 137.059 19.12C136.027 19.168 135.139 20.104 135.019 21.76L130.867 21.04C131.347 17.464 133.363 15.112 136.891 15.016C139.507 14.92 141.787 16.336 142.675 18.28C143.395 19.792 143.179 22.48 141.763 24.616C140.563 26.416 139.627 27.352 137.419 29.368H140.443C141.715 29.368 142.819 29.32 143.587 29.152V32.824C142.603 33.04 140.587 33.136 139.555 33.136H131.083Z" fill="#F0F4FF"/>
<defs>
<linearGradient id="paint0_linear_6098_64559" x1="55.5" y1="-7.5" x2="163.5" y2="62" gradientUnits="userSpaceOnUse">
<stop stop-color="#7D36FF"/>
<stop offset="1" stop-color="#2D74FF"/>
</linearGradient>
</defs>
</svg>
