<svg width="45" height="47" viewBox="0 0 45 47" fill="none" xmlns="http://www.w3.org/2000/svg">
<path d="M10.3217 25.2832C4.99748 25.2832 1.74064 21.46 1.74064 14.748C1.74064 8.03613 4.99748 4.21289 10.3217 4.21289C15.6459 4.21289 18.9028 8.03613 18.9028 14.748C18.9028 21.4883 15.6459 25.2832 10.3217 25.2832ZM10.3217 21.3467C12.5024 21.3467 13.9467 19.2793 13.9467 14.748C13.9467 10.2734 12.5024 8.12109 10.3217 8.12109C8.14103 8.12109 6.72502 10.2734 6.6967 14.748C6.66838 19.2793 8.14103 21.3467 10.3217 21.3467ZM22.9673 25.2832C21.5513 25.2832 20.3901 24.1504 20.4185 22.7061C20.3901 21.3184 21.5513 20.1855 22.9673 20.1855C24.3267 20.1855 25.5161 21.3184 25.5444 22.7061C25.5161 24.1504 24.3267 25.2832 22.9673 25.2832ZM28.1363 25V21.5166L35.6129 14.9463C37.3404 13.3604 38.3316 12.3125 38.3599 10.7549C38.3316 9.05566 37.0855 7.97949 35.358 7.97949C33.6021 7.97949 32.441 9.08398 32.441 10.9531H27.8531C27.8531 6.81836 30.8834 4.21289 35.3863 4.21289C40.0025 4.21289 43.0328 6.70508 43.0328 10.3867C43.0328 12.7373 41.8717 14.6914 37.4254 18.5713L34.8482 20.9502V21.0918H43.2877L43.2877 25L28.1363 25Z" fill="black"/>
<path d="M10.5771 43H8.67676L12.1631 33.1016H14.3506L17.8506 43H15.9502L15.1299 40.5527H11.3975L10.5771 43ZM11.876 39.1172H14.6514L13.2979 35.125H13.2158L11.876 39.1172ZM19.0264 43L19.0264 33.1016H22.7451C25.0146 33.1016 26.2314 34.4824 26.2314 36.3828C26.2314 38.2832 25.001 39.6504 22.7178 39.6504H20.8037L20.8037 43H19.0264ZM20.8037 38.1875H22.4717C23.8115 38.1875 24.4131 37.4355 24.4131 36.3828C24.4131 35.3164 23.8115 34.5918 22.4717 34.5918H20.8037V38.1875ZM27.2295 34.5918V33.1016H35.1182V34.5918H32.0693V43H30.292L30.292 34.5918H27.2295Z" fill="black"/>
</svg>
