<svg width="46" height="56" viewBox="0 0 46 56" fill="none" xmlns="http://www.w3.org/2000/svg">
<g id="Frame 1000004834">
<g id="Group" filter="url(#filter0_d_6933_78707)">
<path id="Vector" d="M22 2.00195C10.9728 2.00195 2 10.6576 2 21.2952C2 24.9684 3.03814 28.8691 5.0847 32.8864C6.70728 36.0723 8.96583 39.3423 11.7969 42.6046C16.6053 48.1432 21.3363 51.6979 21.5344 51.847C21.6711 51.9483 21.8356 51.9999 22 51.9999C22.1644 51.9999 22.3289 51.9483 22.4656 51.847C22.6657 51.6979 27.3947 48.1451 32.2031 42.6046C35.0342 39.3423 37.2927 36.0723 38.9153 32.8864C40.9619 28.8691 42 24.9684 42 21.2952C42 10.6576 33.0272 2.00195 22 2.00195ZM22 14.6252C25.8118 14.6252 28.9143 17.6181 28.9143 21.2952C28.9143 24.9722 25.8118 27.9651 22 27.9651C18.1882 27.9651 15.0857 24.9722 15.0857 21.2952C15.0857 17.6181 18.1882 14.6252 22 14.6252Z" fill="#FFC345"/>
<path id="Vector_2" d="M21.9992 2.00191C21.2483 2.00191 20.5074 2.04396 19.7783 2.12231C29.7654 3.19066 37.5574 11.3819 37.5574 21.2951C37.5574 24.9684 36.5193 28.8691 34.4727 32.8863C32.8501 36.0722 30.5916 39.3422 27.7605 42.6046C24.6758 46.1574 21.6228 48.8942 19.7783 50.4384C20.8085 51.3004 21.4623 51.7915 21.5336 51.8451C21.6703 51.9464 21.8348 51.998 21.9992 51.998C22.1637 51.998 22.3281 51.9464 22.4648 51.8451C22.6649 51.696 27.394 48.1431 32.2023 42.6027C35.0334 39.3403 37.2919 36.0703 38.9145 32.8844C40.9611 28.8671 41.9992 24.9665 41.9992 21.2932C41.9992 10.6557 33.0265 2 21.9992 2V2.00191Z" fill="#EAB568"/>
</g>
</g>
<defs>
<filter id="filter0_d_6933_78707" x="0.887054" y="0.887054" width="44.4518" height="54.4518" filterUnits="userSpaceOnUse" color-interpolation-filters="sRGB">
<feFlood flood-opacity="0" result="BackgroundImageFix"/>
<feColorMatrix in="SourceAlpha" type="matrix" values="0 0 0 0 0 0 0 0 0 0 0 0 0 0 0 0 0 0 127 0" result="hardAlpha"/>
<feOffset dx="1.11295" dy="1.11295"/>
<feGaussianBlur stdDeviation="1.11295"/>
<feColorMatrix type="matrix" values="0 0 0 0 0.137255 0 0 0 0 0.121569 0 0 0 0 0.12549 0 0 0 0.2 0"/>
<feBlend mode="normal" in2="BackgroundImageFix" result="effect1_dropShadow_6933_78707"/>
<feBlend mode="normal" in="SourceGraphic" in2="effect1_dropShadow_6933_78707" result="shape"/>
</filter>
</defs>
</svg>
