<svg width="264" height="27" viewBox="0 0 264 27" fill="none" xmlns="http://www.w3.org/2000/svg">
<path d="M10.2669 25.36H0.606875V1.84H10.2669V9.288L15.8669 1.84H26.6469L17.5469 13.684L27.2069 25.36H15.8669L10.2669 18.22V25.36ZM36.8592 25.36H27.7592V1.84H42.6272C49.3752 1.84 52.2032 3.856 52.2032 7.804C52.2032 10.156 51.0832 11.864 48.8152 12.956C51.6712 13.992 53.3792 16.176 53.3792 18.752C53.3792 23.232 50.8032 25.36 42.6272 25.36H37.9792L37.1392 18.5H41.5912C43.4952 18.5 44.2792 18.052 44.2792 17.1C44.2792 16.148 43.4952 15.7 41.5912 15.7H36.8592V25.36ZM36.8592 10.8H41.4512C42.9632 10.8 43.6632 10.352 43.6632 9.54C43.6632 8.728 42.9632 8.28 41.4512 8.28H36.8592V10.8ZM67.948 25.36H58.428L53.668 1.84H62.628L64.112 14.384L66.688 1.84H74.528L77.104 14.384L78.588 1.84H87.548L82.788 25.36H73.268L70.608 12.872L67.948 25.36ZM93.7123 19.48C106.004 13.544 107.936 12.144 107.936 10.212C107.936 9.288 107.264 8.84 106.004 8.84C104.66 8.84 101.384 9.904 97.1003 11.752L93.9923 5.284C98.2483 2.652 102.84 1.28 107.292 1.28C114.236 1.28 117.792 4.248 117.792 8.812C117.792 12.872 115.02 16.288 108.636 18.08H117.932V25.36H94.5523L93.7123 19.48ZM132.643 25.92C124.327 25.92 118.923 21.244 118.643 14.132H128.471C128.667 16.092 130.151 17.66 132.643 17.66C135.303 17.66 136.843 15.812 136.843 13.572C136.843 11.332 135.331 9.54 132.643 9.54C130.123 9.54 128.499 11.136 128.471 13.852L118.643 13.012C118.951 5.928 124.355 1.28 132.643 1.28C141.155 1.28 146.643 6.18 146.643 13.6C146.643 21.02 141.155 25.92 132.643 25.92ZM147.47 19.48C159.762 13.544 161.694 12.144 161.694 10.212C161.694 9.288 161.022 8.84 159.762 8.84C158.418 8.84 155.142 9.904 150.858 11.752L147.75 5.284C152.006 2.652 156.598 1.28 161.05 1.28C167.994 1.28 171.55 4.248 171.55 8.812C171.55 12.872 168.778 16.288 162.394 18.08H171.69V25.36H148.31L147.47 19.48ZM172.541 15.84L185.309 1.84H194.689V15.84H196.061V22.84H194.689V25.36H185.309V22.84H173.101L172.541 15.84ZM180.885 15.84H185.309V10.968L180.885 15.84ZM224.347 0.607998H232.327V26.592H224.347V0.607998ZM203.487 18.976C213.287 17.884 215.079 16.484 215.079 11.36C215.079 9.484 214.155 8.532 212.223 8.532C210.655 8.532 208.835 8.7 204.607 9.204L203.767 2.204C208.023 1.364 211.747 0.943999 214.715 0.943999C220.623 0.943999 223.059 3.716 223.059 10.38C223.059 21.188 217.319 25.976 204.327 25.976L203.487 18.976ZM251.65 16.4C249.046 16.596 246.274 16.68 243.754 16.68C237.146 16.68 234.85 15.252 234.85 10.996C234.85 7.552 235.158 4.528 235.83 0.999998L243.81 1.168C243.362 4.864 243.25 6.516 243.25 8.224C243.25 9.876 243.754 10.296 245.686 10.296C247.31 10.296 248.85 10.24 251.37 10.128L251.65 16.4ZM237.09 26.592V17.52H263.69V26.592H237.09ZM244.65 22.812H256.13V21.16H244.65V22.812ZM252.07 15.168V9.68H256.27V7.664H252.07V2.148H256.27V0.607998H263.69V16.82H256.27V15.168H252.07Z" fill="#222222"/>
</svg>
