<svg width="311" height="37" viewBox="0 0 311 37" fill="none" xmlns="http://www.w3.org/2000/svg">
<path d="M2.97699 26.01H13.807V28.822H39.837V36.232H2.97699V26.01ZM0.126992 24.49C0.126992 18.828 0.506992 15.826 1.91299 13.698H0.316992V7.808H26.879V13.698H12.211C11.793 14.268 11.489 14.876 11.223 15.484C13.541 15.066 15.935 14.838 18.025 14.838C24.599 14.838 27.069 16.586 27.069 21.184V24.49L16.999 24.87V23.084C16.999 21.678 16.391 21.26 14.567 21.26C13.313 21.26 11.755 21.412 10.235 21.716C10.197 22.666 10.197 23.692 10.197 24.87L0.126992 24.49ZM2.40699 6.668V0.967998H24.827V6.668H2.40699ZM28.437 27.492V0.777998L39.077 0.967998V27.492H28.437ZM67.6194 18.942C68.3794 15.408 68.5694 14.61 68.5694 13.128C68.5694 11.304 67.5434 10.81 63.5534 10.81C59.3354 10.81 54.8514 11.076 44.2494 11.874L43.3754 2.982C52.1534 1.994 59.1454 1.538 64.9594 1.538C77.3474 1.538 81.1474 3.476 81.1474 9.822C81.1474 12.596 80.6534 15.978 79.6654 19.588L67.6194 18.942ZM41.5514 28.898V20.538H82.9714V28.898H68.1514V36.232H56.3714V28.898H41.5514ZM91.7233 26.922H106.847V23.502H118.057V26.922H133.143V35.282H91.7233V26.922ZM93.3573 24.642C93.3573 19.208 93.7753 16.358 95.3713 14.458H93.5473V8.378H131.319V14.458H108.025C107.455 15.066 106.961 15.712 106.619 16.434C110.647 15.788 114.865 15.408 118.703 15.408C128.165 15.408 131.509 16.89 131.509 21.07V24.642L119.539 25.022V23.844C119.539 22.248 118.361 21.564 115.587 21.564C112.585 21.564 108.405 21.906 105.365 22.4C105.327 23.198 105.327 24.072 105.327 25.022L93.3573 24.642ZM96.2073 7.238V1.538H128.659V7.238H96.2073ZM166.512 0.967998H174.948V36.232H166.512V21.45H164.954V36.042H156.594V0.967998H164.954V13.09H166.512V0.967998ZM134.478 2.336C141.508 1.386 148.006 1.386 155.036 2.336L154.656 11.114C151.236 10.772 148.424 10.582 145.726 10.544C145.346 14.8 145.118 19.056 145.118 22.666C145.118 24.794 145.726 25.402 147.892 25.402C150.02 25.402 151.274 25.25 155.036 24.832L155.416 33.914C151.122 34.598 147.854 34.826 144.282 34.826C137.176 34.826 135.238 32.242 135.238 22.78C135.238 19.132 135.466 15.294 135.922 11L134.858 11.114L134.478 2.336ZM213.91 0.967998H224.74V36.232H213.91V0.967998ZM184.84 18.866H195.1C195.176 23.426 196.354 26.162 198.862 26.162C201.446 26.162 202.662 23.236 202.662 18.296C202.662 13.166 201.446 10.24 198.862 10.24C196.354 10.24 195.176 13.166 195.1 18.486L184.84 17.726C184.992 7.048 189.704 1.424 198.862 1.424C208.21 1.424 212.922 7.238 212.922 18.296C212.922 29.354 208.172 35.206 198.862 35.206C189.704 35.206 184.992 29.582 184.84 18.866ZM230.444 25.25H241.274V28.442H268.444V36.232H230.444V25.25ZM227.594 16.13V1.424H235.764V5.49H239.754C239.602 4.312 239.412 3.096 239.184 1.804L247.164 1.424C247.734 3.4 248.038 6.098 248.114 8.91H249.71V0.967998H257.88V25.782H249.71V16.89H248.152V24.11H235.232C229.836 24.11 227.594 21.754 227.594 16.13ZM235.764 13.812C235.764 16.206 236.106 16.89 238.462 16.89H239.602C239.83 15.332 239.982 13.812 240.02 12.33H235.764V13.812ZM259.248 27.112V0.967998H267.684V27.112H259.248ZM269.589 27.112H311.009V35.282H269.589V27.112ZM271.033 2.792C283.193 1.386 296.645 1.386 308.805 2.792L308.425 9.328C297.709 8.606 292.161 8.34 285.017 8.568L284.485 10.696H307.855V16.396H283.839C283.877 18.182 284.523 18.676 286.613 18.676C293.263 18.676 303.637 18.372 308.805 18.068L309.185 24.984C303.789 25.402 292.883 25.782 285.853 25.782C275.593 25.782 272.173 23.73 272.173 17.574C272.173 14.99 272.591 12.254 273.503 9.176C272.819 9.252 272.135 9.29 271.413 9.328L271.033 2.792Z" fill="#7E37FF"/>
</svg>
