<svg width="303" height="25" viewBox="0 0 303 25" fill="none" xmlns="http://www.w3.org/2000/svg">
<path d="M9.65359 24.1647H-0.00640621V0.644687H9.65359V8.09269L15.2536 0.644687H26.0336L16.9336 12.4887L26.5936 24.1647H15.2536L9.65359 17.0247V24.1647ZM36.2459 24.1647H27.1459V0.644687H42.0139C48.7619 0.644687 51.5899 2.66069 51.5899 6.60869C51.5899 8.96069 50.4699 10.6687 48.2019 11.7607C51.0579 12.7967 52.7659 14.9807 52.7659 17.5567C52.7659 22.0367 50.1899 24.1647 42.0139 24.1647H37.3659L36.5259 17.3047H40.9779C42.8819 17.3047 43.6659 16.8567 43.6659 15.9047C43.6659 14.9527 42.8819 14.5047 40.9779 14.5047H36.2459V24.1647ZM36.2459 9.60469H40.8379C42.3499 9.60469 43.0499 9.15669 43.0499 8.34469C43.0499 7.53269 42.3499 7.08469 40.8379 7.08469H36.2459V9.60469ZM67.3347 24.1647H57.8147L53.0547 0.644687H62.0147L63.4987 13.1887L66.0747 0.644687H73.9147L76.4907 13.1887L77.9747 0.644687H86.9347L82.1747 24.1647H72.6547L69.9947 11.6767L67.3347 24.1647ZM93.0991 18.2847C105.391 12.3487 107.323 10.9487 107.323 9.01669C107.323 8.09269 106.651 7.64469 105.391 7.64469C104.047 7.64469 100.771 8.70869 96.4871 10.5567L93.3791 4.08869C97.6351 1.45669 102.227 0.0846872 106.679 0.0846872C113.623 0.0846872 117.179 3.05269 117.179 7.61669C117.179 11.6767 114.407 15.0927 108.023 16.8847H117.319V24.1647H93.9391L93.0991 18.2847ZM132.03 24.7247C123.714 24.7247 118.31 20.0487 118.03 12.9367H127.858C128.054 14.8967 129.538 16.4647 132.03 16.4647C134.69 16.4647 136.23 14.6167 136.23 12.3767C136.23 10.1367 134.718 8.34469 132.03 8.34469C129.51 8.34469 127.886 9.94069 127.858 12.6567L118.03 11.8167C118.338 4.73269 123.742 0.0846872 132.03 0.0846872C140.542 0.0846872 146.03 4.98469 146.03 12.4047C146.03 19.8247 140.542 24.7247 132.03 24.7247ZM146.857 18.2847C159.149 12.3487 161.081 10.9487 161.081 9.01669C161.081 8.09269 160.409 7.64469 159.149 7.64469C157.805 7.64469 154.529 8.70869 150.245 10.5567L147.137 4.08869C151.393 1.45669 155.985 0.0846872 160.437 0.0846872C167.381 0.0846872 170.937 3.05269 170.937 7.61669C170.937 11.6767 168.165 15.0927 161.781 16.8847H171.077V24.1647H147.697L146.857 18.2847ZM171.928 14.6447L184.696 0.644687H194.076V14.6447H195.448V21.6447H194.076V24.1647H184.696V21.6447H172.488L171.928 14.6447ZM180.272 14.6447H184.696V9.77269L180.272 14.6447ZM223.313 7.78469H211.273V9.46469H223.033V15.0647H211.273V16.7447H223.453V24.1647H202.173V0.644687H223.313V7.78469ZM230.028 24.1647L224.008 5.96469H232.296L234.592 17.5847L236.86 5.96469H245.148L239.128 24.1647H230.028ZM252.56 16.5767C252.56 17.6687 253.848 18.3127 255.78 18.3127C257.936 18.3127 259.84 18.0607 263.62 17.1367L265.02 22.2607C262.556 23.9407 259.42 24.7247 255.36 24.7247C248.472 24.7247 244.44 21.1407 244.44 15.0367C244.44 9.24069 248.78 5.40469 255.36 5.40469C262.136 5.40469 265.72 8.76469 265.72 15.0927V16.5767H252.56ZM252.644 13.1607H258.356C258.356 12.1247 257.04 11.4247 255.5 11.4247C253.96 11.4247 252.644 12.1247 252.644 13.1607ZM266.705 24.1647V5.96469H274.405V24.1647H266.705ZM274.685 7.28069C276.113 6.21669 278.661 5.40469 280.621 5.40469C284.625 5.40469 286.165 7.39269 286.165 12.1807V24.1647H278.465V13.8887C278.465 12.9367 278.213 12.6287 277.457 12.6287C276.953 12.6287 276.337 12.8527 275.245 13.4407L274.685 7.28069ZM287.294 5.96469H290.262V0.588686H297.962V5.96469H301.714V12.2647H297.962V15.9887C297.962 17.3047 298.242 17.5847 299.698 17.5847H302.274L301.994 24.1647H298.606C292.306 24.1647 290.262 22.6527 290.262 17.1087V12.2647H287.294V5.96469Z" fill="#222222"/>
</svg>
