<svg width="97" height="20" viewBox="0 0 97 20" fill="none" xmlns="http://www.w3.org/2000/svg">
<path d="M17.9958 0H0V4.65352H17.9958V0Z" fill="#3617CD"/>
<path d="M6.40723 6.11914V19.6647H11.5807V8.77703L6.40723 6.11914Z" fill="#3617CD"/>
<path d="M96.6683 8.1162V5.17575H93.9446V0.990234H93.9103L89.8674 3.07416V5.17575H87.6147V8.1162H89.8674V16.1075C89.8674 18.6065 91.1865 19.6661 94.2872 19.6661C95.2379 19.6661 95.9831 19.6219 96.5142 19.5248L96.6683 19.4983V16.1075L96.4457 16.1693C96.1801 16.24 95.8118 16.2753 95.3407 16.2753C94.1844 16.2753 93.9531 16.0369 93.9531 14.8448V8.12504H96.6683V8.1162Z" fill="#3617CD"/>
<path d="M61.1821 2.11917V19.6648H65.2678V0.0175781L61.1821 2.11917Z" fill="#3617CD"/>
<path d="M67.4775 2.11917V19.6648H71.5546V0.0175781L67.4775 2.11917Z" fill="#3617CD"/>
<path d="M51.2985 11.0736C49.0201 11.3208 47.7182 11.7358 46.8274 12.5217C45.988 13.2634 45.5854 14.2789 45.5854 15.6299C45.5854 16.9898 46.048 18.1112 46.9131 18.8794C47.7525 19.6124 48.9431 20.0009 50.3735 20.0009C52.1979 20.0009 53.714 19.4799 54.7846 18.4909C54.8275 18.8 54.9045 19.1355 55.0159 19.4976L55.0587 19.63H59.29L59.1187 19.3474C58.7932 18.8 58.6733 17.5108 58.6733 16.4776V9.07792C58.6733 7.71807 58.1508 6.66728 57.1144 5.9697C56.0951 5.28094 54.5619 4.92773 52.5748 4.92773C48.5576 4.92773 46.1593 6.69377 46.0051 9.77551L45.9966 9.96978H50.0737L50.0908 9.802C50.2107 8.45981 50.9216 7.86819 52.3949 7.86819C53.9538 7.86819 54.5962 8.35385 54.5962 9.54593C54.5962 10.5526 53.851 10.791 51.2985 11.0736ZM51.7611 17.0693C49.6626 17.0693 49.6625 15.8684 49.6625 15.471C49.6625 14.0935 50.6733 13.7049 52.5405 13.4665C53.5598 13.3341 54.185 13.184 54.5876 12.9632V14.0935C54.5962 16.0626 53.6369 17.0693 51.7611 17.0693Z" fill="#3617CD"/>
<path d="M41.0022 5.33398L38.6296 14.332L36.4368 5.33398H32.5396L30.3983 14.3496L28.0257 5.33398H23.7173L28.1199 19.6654H32.2484L34.4411 10.7557L36.7281 19.6654H40.8223L45.2078 5.33398H41.0022Z" fill="#3617CD"/>
<path d="M80.3431 19.999C81.9962 19.999 83.3838 19.5928 84.463 18.7981C85.5423 18.0034 86.3474 16.776 86.8528 15.1689L86.9298 14.9216H83.2725L83.2296 15.0541C82.947 15.9901 81.7307 16.7318 80.4459 16.7318C78.4758 16.7318 77.4908 15.7252 77.3366 13.5706H87.084L87.0926 13.394C87.0926 13.3764 87.1183 12.8995 87.1183 12.6788C87.1183 10.5419 86.5016 8.60805 85.3795 7.22171C84.1547 5.71175 82.4159 4.9082 80.3431 4.9082C76.2317 4.9082 73.251 8.08707 73.251 12.4668C73.251 14.6567 73.9105 16.5199 75.1439 17.8798C76.4116 19.2661 78.2103 19.999 80.3431 19.999ZM80.206 8.18421C81.7906 8.18421 82.6043 8.9436 82.9727 10.7803H77.3452C77.5593 9.1202 78.5958 8.18421 80.206 8.18421Z" fill="#3617CD"/>
</svg>
