<svg width="180" height="64" viewBox="0 0 180 64" fill="none" xmlns="http://www.w3.org/2000/svg">
<path fill-rule="evenodd" clip-rule="evenodd" d="M25 0C11.1929 0 0 11.1929 0 25C0 38.8071 11.1929 50 25 50H83L90 64L97 50H155C168.807 50 180 38.8071 180 25C180 11.1929 168.807 0 155 0H25Z" fill="url(#paint0_linear_6098_64587)"/>
<path d="M50.1845 33.232C48.4805 33.712 46.1765 33.736 44.0405 33.136C42.8405 32.728 40.8965 31.6 39.8405 30.424L42.6725 27.352C45.0725 29.032 46.9445 29.752 48.3125 29.416C49.5605 29.104 49.8245 27.664 48.7445 26.968C47.5205 26.128 46.2965 25.864 44.1365 24.712C41.0885 23.008 40.3205 20.44 41.3765 18.376C42.4565 16.096 44.7845 14.896 47.5205 14.896C50.2325 14.896 52.4885 15.904 54.0485 17.584L51.2645 20.68C50.0885 19.672 48.3365 18.952 47.1845 18.952C46.5125 18.952 45.8645 19.336 45.8645 20.128C45.8645 20.896 46.8005 21.496 49.3925 22.768C52.6565 24.256 53.8805 25.744 54.1205 27.544C54.5525 30.112 53.1845 32.392 50.1845 33.232ZM55.5978 26.608C55.5978 22.192 58.2858 19.456 62.1738 19.456C66.1578 19.456 68.4618 22.384 68.4618 26.656L68.3658 27.976H59.7018C59.7978 29.2 60.9738 29.872 62.3418 29.872C63.5898 29.872 64.4538 29.368 65.2218 28.432L67.9338 30.784C66.5178 32.728 64.5978 33.616 62.1738 33.616C58.3098 33.616 55.5258 30.928 55.5978 26.608ZM64.4058 24.76C64.2378 23.656 63.2778 23.128 62.1978 23.128C60.9978 23.128 60.0858 23.728 59.9418 24.76H64.4058ZM79.45 33.136V31.984C78.658 32.8 77.41 33.304 76.018 33.304C72.514 33.304 69.682 31.144 69.802 26.464C69.946 21.736 72.922 19.528 76.186 19.672C77.578 19.744 78.73 20.368 79.45 21.136V19.936H83.602V33.136H79.45ZM76.522 29.632C77.938 29.632 79.018 28.96 79.306 27.496C79.33 27.4 79.354 26.944 79.354 26.848C79.354 24.592 78.154 23.344 76.618 23.344C75.322 23.272 73.954 24.304 73.954 26.464C73.954 28.552 75.058 29.632 76.522 29.632ZM93.4297 33.352C92.1577 33.712 90.5977 33.664 88.7977 33.376C87.5497 33.136 86.1337 32.512 84.8857 31.648L86.5657 28.384C88.1257 29.2 89.5897 29.8 90.9817 29.992C91.8697 30.184 92.0617 29.104 91.2697 28.768C90.2377 28.264 88.8697 28 87.2137 26.992C85.6297 26.032 84.8377 24.064 85.6537 22.144C86.2537 20.56 87.7177 19.528 90.3817 19.432C92.5177 19.36 94.3417 19.984 96.1417 21.376L93.9817 24.376C92.6617 23.56 91.6297 23.224 90.6217 23.152C90.0697 23.08 89.7577 24.016 90.3337 24.328C91.3177 24.88 92.7337 25.168 94.0777 25.888C95.8537 26.8 96.6937 28.216 96.4297 30.064C96.2137 31.864 95.0857 32.872 93.4297 33.352ZM104.653 29.656C106.261 29.656 107.725 28.624 107.725 26.512C107.725 24.496 106.261 23.368 104.653 23.368C103.093 23.368 101.677 24.496 101.677 26.512C101.677 28.624 103.093 29.656 104.653 29.656ZM104.701 33.448C100.501 33.448 97.5252 30.688 97.5252 26.512C97.5252 22.168 100.765 19.576 104.701 19.576C108.637 19.576 111.877 22.168 111.877 26.512C111.877 30.688 108.901 33.448 104.701 33.448ZM113.448 33.136V19.936H117.648V20.704C118.248 20.2 119.448 19.72 120.6 19.624H120.984C124.2 19.624 125.688 21.784 125.712 25.072V33.136H121.512V26.872C121.512 24.112 120.84 23.632 119.664 23.68C118.752 23.728 118.344 23.968 117.648 24.496V33.136H113.448ZM135.091 20.464L133.171 20.608V16.96C134.299 16.792 135.619 16.288 136.075 15.328H139.291V33.136H135.091V20.464Z" fill="#F0F4FF"/>
<defs>
<linearGradient id="paint0_linear_6098_64587" x1="55" y1="-7.5" x2="163" y2="62" gradientUnits="userSpaceOnUse">
<stop stop-color="#7D36FF"/>
<stop offset="1" stop-color="#2D74FF"/>
</linearGradient>
</defs>
</svg>
