<svg width="48" height="48" viewBox="0 0 48 48" fill="none" xmlns="http://www.w3.org/2000/svg">
<rect width="48" height="48" fill="#1E1E1E"/>
<g id="ARGOS &#236;&#157;&#184;&#236;&#166;&#157;">
<path d="M-2779 -559C-2779 -560.104 -2778.1 -561 -2777 -561H5337C5338.1 -561 5339 -560.105 5339 -559V3739C5339 3740.1 5338.1 3741 5337 3741H-2777C-2778.1 3741 -2779 3740.1 -2779 3739V-559Z" fill="#404040"/>
<path d="M-2777 -560H5337V-562H-2777V-560ZM5338 -559V3739H5340V-559H5338ZM5337 3740H-2777V3742H5337V3740ZM-2778 3739V-559H-2780V3739H-2778ZM-2777 3740C-2777.55 3740 -2778 3739.55 -2778 3739H-2780C-2780 3740.66 -2778.66 3742 -2777 3742V3740ZM5338 3739C5338 3739.55 5337.55 3740 5337 3740V3742C5338.66 3742 5340 3740.66 5340 3739H5338ZM5337 -560C5337.55 -560 5338 -559.552 5338 -559H5340C5340 -560.657 5338.66 -562 5337 -562V-560ZM-2777 -562C-2778.66 -562 -2780 -560.657 -2780 -559H-2778C-2778 -559.552 -2777.55 -560 -2777 -560V-562Z" fill="white" fill-opacity="0.1"/>
<g id="5-10. Rejected">
<rect x="-156" y="-260" width="360" height="800" fill="white"/>
<g id="close_ring">
<path id="Ellipse 86" d="M24 42C21.6362 42 19.2956 41.5344 17.1117 40.6298C14.9278 39.7252 12.9435 38.3994 11.2721 36.7279C9.60062 35.0565 8.27475 33.0722 7.37017 30.8883C6.46558 28.7044 6 26.3638 6 24C6 21.6362 6.46558 19.2956 7.37017 17.1117C8.27475 14.9278 9.60063 12.9435 11.2721 11.2721C12.9435 9.60062 14.9278 8.27475 17.1117 7.37017C19.2956 6.46558 21.6362 6 24 6C26.3638 6 28.7044 6.46558 30.8883 7.37017C33.0722 8.27476 35.0565 9.60063 36.7279 11.2721C38.3994 12.9435 39.7252 14.9278 40.6298 17.1117C41.5344 19.2956 42 21.6362 42 24C42 26.3638 41.5344 28.7044 40.6298 30.8883C39.7252 33.0722 38.3994 35.0565 36.7279 36.7279C35.0565 38.3994 33.0722 39.7252 30.8883 40.6298C28.7044 41.5344 26.3638 42 24 42L24 42Z" stroke="#808080" stroke-width="3" stroke-linecap="round"/>
<path id="Vector 112" d="M18 18L30 30" stroke="#808080" stroke-width="3" stroke-linecap="round"/>
<path id="Vector 113" d="M30 18L18 30" stroke="#808080" stroke-width="3" stroke-linecap="round"/>
</g>
</g>
</g>
</svg>
