<svg width="55" height="55" viewBox="0 0 55 55" fill="none" xmlns="http://www.w3.org/2000/svg">
<g id="Done_ring_round">
<path id="Line 1" d="M20.6247 22.9173L29.0494 29.2359C29.4679 29.5498 30.0576 29.4881 30.402 29.0944L45.833 11.459" stroke="#808080" stroke-width="3" stroke-linecap="round"/>
<path id="Ellipse 47" d="M48.125 27.5C48.125 31.8095 46.7751 36.0107 44.265 39.5136C41.7548 43.0165 38.2104 45.6452 34.1297 47.0304C30.0489 48.4157 25.6368 48.4879 21.5129 47.2369C17.389 45.9859 13.7605 43.4746 11.1371 40.0557C8.51366 36.6368 7.02704 32.482 6.88604 28.1748C6.74504 23.8677 7.95673 19.6245 10.3509 16.0414C12.7451 12.4582 16.2016 9.71495 20.2348 8.19694C24.2681 6.67893 28.6755 6.46241 32.8381 7.57778" stroke="#808080" stroke-width="3" stroke-linecap="round"/>
</g>
</svg>
