<svg width="72" height="72" viewBox="0 0 72 72" fill="none" xmlns="http://www.w3.org/2000/svg">
<g id="clap-icon 1">
<g id="Group">
<path id="Vector" d="M66.7122 43.3691C66.279 42.5816 65.6378 41.9797 64.9009 41.5804L65.9584 41.001C67.0384 40.4047 67.7753 39.426 68.0959 38.3291C68.4165 37.2266 68.3153 36.006 67.7247 34.926V34.9204C67.2859 34.1216 66.6053 33.4747 65.7896 33.0754L66.639 32.6085C67.719 32.0122 68.4559 31.0335 68.7765 29.9366C69.0972 28.8341 68.9959 27.6135 68.4053 26.5335C67.8147 25.4535 66.8303 24.7166 65.7334 24.4016C64.6309 24.081 63.4103 24.1822 62.3303 24.7729L61.464 25.251C61.5484 24.3904 61.3797 23.496 60.9353 22.6804C60.3447 21.6004 59.3603 20.8635 58.2634 20.5429C57.1609 20.2222 55.9403 20.3235 54.8603 20.9141L50.4053 23.3666C49.9272 22.3204 49.1003 21.426 47.9865 20.886H47.9809C47.0359 20.4304 45.9784 20.2729 44.9434 20.436L45.4328 19.4347C46.0515 18.1635 46.0965 16.7572 45.6634 15.5141C45.2359 14.271 44.3303 13.191 43.059 12.5722C41.7878 11.9535 40.3815 11.9085 39.1384 12.3416C37.8953 12.7691 36.8153 13.6747 36.1965 14.9404L35.7015 15.9585C35.2065 15.0979 34.4584 14.3666 33.5021 13.8997C32.2309 13.281 30.8246 13.236 29.5815 13.6691C28.3384 14.0966 27.2584 15.0022 26.6396 16.2735L15.9521 38.2054C15.7103 38.5597 15.4909 38.931 15.2996 39.3191L14.6696 40.6072L14.6078 40.4441C14.1746 39.3135 13.7809 38.1547 13.629 37.7216C12.6221 34.791 10.704 33.3397 8.7634 33.0585C7.8859 32.9291 7.01965 33.0416 6.22652 33.3566C5.4334 33.6716 4.71902 34.1947 4.14527 34.8922C2.78964 36.5404 2.24964 39.1841 3.56027 42.3847L3.57714 42.441L3.58277 42.4522C4.97215 46.5416 8.23465 59.046 11.8234 62.9835C16.2615 67.8547 27.7478 72.4222 33.9296 70.2454C37.3384 69.0472 40.2971 66.5385 42.0071 63.0285L42.6428 61.7235C50.079 57.6341 57.5097 53.5391 64.9515 49.4441C66.0315 48.8535 66.7684 47.8691 67.0834 46.7722C67.404 45.6754 67.3084 44.4491 66.7122 43.3691ZM50.8665 25.4197C52.5147 24.5197 54.174 23.6141 55.8334 22.6972C56.4184 22.3766 57.0878 22.3204 57.6897 22.4947C58.2915 22.6691 58.8259 23.0685 59.1465 23.6591C59.4672 24.2441 59.5234 24.9135 59.349 25.5154C59.1747 26.1172 58.7753 26.6516 58.1847 26.9722L53.1334 29.751C52.9703 29.6497 52.8071 29.5541 52.6271 29.4697C51.699 29.0197 50.6978 28.8735 49.7415 28.9972L50.349 27.7541C50.7147 27.0004 50.8778 26.2016 50.8665 25.4197ZM54.6859 31.2979L63.3034 26.556C63.8884 26.2354 64.5578 26.1791 65.1596 26.3535C65.7615 26.5279 66.2959 26.9272 66.6165 27.5179C66.9371 28.1029 66.9934 28.7722 66.819 29.3741C66.6447 29.976 66.2453 30.5104 65.6547 30.831L54.759 36.8216L54.9953 36.3322C55.614 35.061 55.659 33.6547 55.2259 32.4116C55.0965 32.0235 54.9109 31.6466 54.6859 31.2979ZM53.1278 40.1741L62.6228 34.9485C63.2078 34.6279 63.8772 34.5716 64.479 34.746C65.0809 34.9204 65.6153 35.3197 65.9359 35.9104C66.2565 36.4954 66.3128 37.1647 66.1384 37.7666C65.964 38.3685 65.5647 38.9029 64.974 39.2235L52.1603 46.2716L53.139 48.0547L61.6159 43.3916C62.2009 43.071 62.8703 43.0147 63.4721 43.1891C64.074 43.3635 64.6084 43.7629 64.929 44.3535C65.2497 44.9385 65.3059 45.6079 65.1315 46.2097C64.9572 46.8116 64.5578 47.346 63.9672 47.6666C57.3747 51.2947 50.7822 54.9229 44.1896 58.551L53.1278 40.1741ZM39.909 62.0104C38.4746 64.9522 36.0053 67.056 33.1534 68.0572C27.8884 69.9135 17.3078 65.5541 13.539 61.4197C10.3384 57.9097 6.81152 44.7304 5.78777 41.7097C5.77652 41.6591 5.75402 41.6029 5.73715 41.5522L4.65715 41.9966L5.73152 41.5522C4.77527 39.246 5.07902 37.4347 5.95652 36.3716C6.27715 35.9835 6.66527 35.6966 7.09277 35.5279C7.52027 35.3591 7.97589 35.2972 8.43152 35.3647C9.57902 35.5335 10.749 36.4954 11.4353 38.481C11.5928 38.9366 12.009 40.146 12.4421 41.2766C12.8471 42.3397 13.2915 43.386 13.6571 43.9147C13.7696 44.1116 13.944 44.2691 14.1521 44.3704H15.1815L17.4428 40.3541C21.1946 32.6254 24.9521 25.0429 28.7321 17.286C29.0696 16.5941 29.6603 16.1047 30.3409 15.8685C31.0215 15.6322 31.7865 15.6547 32.4784 15.9922C33.1703 16.3297 33.6596 16.9204 33.8959 17.5954C34.1321 18.276 34.1096 19.041 33.7721 19.7329L26.4428 34.791L28.614 35.8485L38.2947 15.9585C38.6321 15.2666 39.2228 14.7772 39.8978 14.541C40.5784 14.3047 41.3434 14.3272 42.0353 14.6647C42.7271 15.0022 43.2165 15.5929 43.4528 16.2735C43.689 16.9541 43.6665 17.7191 43.329 18.411L33.6484 38.301L35.8646 39.381L43.2165 24.2779C43.554 23.586 44.1446 23.0966 44.8253 22.8604C45.5059 22.6241 46.2709 22.6466 46.9628 22.9841C47.6546 23.3216 48.144 23.9122 48.3803 24.5929C48.6165 25.2735 48.594 26.0385 48.2565 26.7304L40.899 41.8279L42.9972 42.8516L47.8572 32.8616C48.1947 32.1697 48.7797 31.6804 49.4603 31.4441C50.1409 31.2079 50.9059 31.2304 51.5978 31.5679C52.2897 31.9054 52.779 32.496 53.0153 33.1766C53.2459 33.8572 53.229 34.6222 52.8915 35.3141C48.5659 44.2129 44.2403 53.1116 39.909 62.0104ZM49.0272 9.86099C49.0215 10.626 48.3972 11.2447 47.6321 11.2335C46.8671 11.2279 46.2484 10.6035 46.2596 9.83849L46.2934 3.13911C46.299 2.37411 46.9234 1.75536 47.6884 1.76661C48.4534 1.77224 49.0722 2.39661 49.0609 3.16161L49.0272 9.86099ZM56.3284 9.77099C56.0247 10.4741 55.2034 10.7947 54.5003 10.491C53.7971 10.1872 53.4765 9.36599 53.7803 8.66286L56.469 2.52599C56.7728 1.82286 57.594 1.50224 58.2971 1.80599C59.0003 2.10974 59.3209 2.93099 59.0172 3.63411L56.3284 9.77099ZM59.0622 16.341C58.4378 16.7854 57.5715 16.6447 57.1272 16.0204C56.6828 15.396 56.8234 14.5297 57.4478 14.0854L63.6297 9.65286C64.254 9.20849 65.1203 9.34911 65.5647 9.97349C66.009 10.5979 65.8684 11.4641 65.244 11.9085L59.0622 16.341Z" fill="#808080" stroke="#808080" stroke-width="0.5"/>
</g>
</g>
</svg>
