<svg width="116" height="24" viewBox="0 0 116 24" fill="none" xmlns="http://www.w3.org/2000/svg">
<g id="Frame 1000004330">
<g id="Group">
<path id="Vector" d="M21.5945 0H0V5.58411H21.5945V0Z" fill="white"/>
<path id="Vector_2" d="M7.68799 7.34326V23.5976H13.896V10.5327L7.68799 7.34326Z" fill="white"/>
</g>
<path id="Vector_3" d="M116 9.73752V6.20904H112.731V1.18652H112.69L107.839 3.68719V6.20904H105.136V9.73752H107.839V19.3269C107.839 22.3256 109.422 23.5971 113.142 23.5971C114.283 23.5971 115.178 23.5441 115.815 23.4276L116 23.3958V19.3269L115.733 19.4011C115.414 19.4859 114.972 19.5282 114.407 19.5282C113.019 19.5282 112.742 19.2422 112.742 17.8117V9.74811H116V9.73752Z" fill="white"/>
<path id="Vector_4" d="M73.4175 2.54285V23.5972H78.3202V0.0209961L73.4175 2.54285Z" fill="white"/>
<path id="Vector_5" d="M80.9717 2.54285V23.5972H85.8641V0.0209961L80.9717 2.54285Z" fill="white"/>
<path id="Vector_6" d="M61.5562 13.2874C58.8222 13.5841 57.2599 14.0821 56.191 15.0252C55.1837 15.9152 54.7007 17.1338 54.7007 18.755C54.7007 20.3868 55.2557 21.7325 56.2938 22.6543C57.3011 23.5338 58.7297 24 60.4462 24C62.6355 24 64.4547 23.3748 65.7395 22.1881C65.7909 22.559 65.8834 22.9616 66.017 23.396L66.0684 23.555H71.1458L70.9403 23.2159C70.5497 22.559 70.4058 21.0119 70.4058 19.7722V10.8927C70.4058 9.26094 69.7788 8.00002 68.5352 7.16293C67.3121 6.33644 65.4723 5.9126 63.0877 5.9126C58.2672 5.9126 55.3893 8.0318 55.2043 11.7298L55.194 11.9629H60.0865L60.107 11.7616C60.2509 10.151 61.104 9.44108 62.8719 9.44108C64.7425 9.44108 65.5134 10.0239 65.5134 11.4543C65.5134 12.6623 64.6192 12.9484 61.5562 13.2874ZM62.1113 20.4821C59.5931 20.4821 59.5931 19.0411 59.5931 18.5643C59.5931 16.9113 60.8059 16.445 63.0466 16.159C64.2697 16 65.02 15.8199 65.5031 15.555V16.9113C65.5134 19.2742 64.3622 20.4821 62.1113 20.4821Z" fill="white"/>
<path id="Vector_7" d="M49.2019 6.3999L46.3548 17.1973L43.7236 6.3999H39.047L36.4775 17.2184L33.6304 6.3999H28.4604L33.7434 23.5973H38.6975L41.3288 12.9059L44.0731 23.5973H48.9861L54.2485 6.3999H49.2019Z" fill="white"/>
<path id="Vector_8" d="M96.4098 24.0002C98.3935 24.0002 100.059 23.5128 101.354 22.5591C102.649 21.6055 103.615 20.1327 104.221 18.2042L104.314 17.9075H99.9249L99.8735 18.0664C99.5344 19.1896 98.0748 20.0797 96.5331 20.0797C94.1691 20.0797 92.9871 18.8717 92.8021 16.2863H104.499L104.509 16.0744C104.509 16.0532 104.54 15.481 104.54 15.2161C104.54 12.6519 103.8 10.3313 102.453 8.66776C100.984 6.85583 98.8971 5.8916 96.4098 5.8916C91.4762 5.8916 87.8994 9.70617 87.8994 14.9618C87.8994 17.5896 88.6908 19.8254 90.1709 21.4572C91.6921 23.1207 93.8505 24.0002 96.4098 24.0002ZM96.2453 9.82273C98.1468 9.82273 99.1232 10.734 99.5652 12.938H92.8124C93.0694 10.9459 94.313 9.82273 96.2453 9.82273Z" fill="white"/>
</g>
</svg>
