<svg width="113" height="23" viewBox="0 0 113 23" fill="none" xmlns="http://www.w3.org/2000/svg">
<path d="M21.01 0H0V5.27H21.01V0Z" fill="white"/>
<path d="M7.47998 6.93018V22.2702H13.52V9.94018L7.47998 6.93018Z" fill="white"/>
<path d="M112.86 9.19012V5.86012H109.68V1.12012H109.64L104.92 3.48012V5.86012H102.29V9.19012H104.92V18.2401C104.92 21.0701 106.46 22.2701 110.08 22.2701C111.19 22.2701 112.06 22.2201 112.68 22.1101L112.86 22.0801V18.2401L112.6 18.3101C112.29 18.3901 111.86 18.4301 111.31 18.4301C109.96 18.4301 109.69 18.1601 109.69 16.8101V9.20012H112.86V9.19012Z" fill="white"/>
<path d="M71.4302 2.40002V22.27H76.2002V0.0200195L71.4302 2.40002Z" fill="white"/>
<path d="M78.7798 2.40002V22.27H83.5398V0.0200195L78.7798 2.40002Z" fill="white"/>
<path d="M59.8902 12.5401C57.2302 12.8201 55.7102 13.2901 54.6702 14.1801C53.6902 15.0201 53.2202 16.1701 53.2202 17.7001C53.2202 19.2401 53.7602 20.5101 54.7702 21.3801C55.7502 22.2101 57.1402 22.6501 58.8102 22.6501C60.9402 22.6501 62.7102 22.0601 63.9602 20.9401C64.0102 21.2901 64.1002 21.6701 64.2302 22.0801L64.2802 22.2301H69.2202L69.0202 21.9101C68.6402 21.2901 68.5002 19.8301 68.5002 18.6601V10.2801C68.5002 8.74008 67.8902 7.55008 66.6802 6.76008C65.4902 5.98008 63.7002 5.58008 61.3802 5.58008C56.6902 5.58008 53.8902 7.58008 53.7102 11.0701L53.7002 11.2901H58.4602L58.4802 11.1001C58.6202 9.58007 59.4502 8.91008 61.1702 8.91008C62.9902 8.91008 63.7402 9.46008 63.7402 10.8101C63.7402 11.9501 62.8702 12.2201 59.8902 12.5401ZM60.4302 19.3301C57.9802 19.3301 57.9802 17.9701 57.9802 17.5201C57.9802 15.9601 59.1602 15.5201 61.3402 15.2501C62.5302 15.1001 63.2602 14.9301 63.7302 14.6801V15.9601C63.7402 18.1901 62.6202 19.3301 60.4302 19.3301Z" fill="white"/>
<path d="M47.8699 6.04004L45.0999 16.23L42.5399 6.04004H37.9899L35.4899 16.25L32.7199 6.04004H27.6899L32.8299 22.27H37.6499L40.2099 12.18L42.8799 22.27H47.6599L52.7799 6.04004H47.8699Z" fill="white"/>
<path d="M93.8 22.6501C95.73 22.6501 97.35 22.1901 98.61 21.2901C99.87 20.3901 100.81 19.0001 101.4 17.1801L101.49 16.9001H97.22L97.17 17.0501C96.84 18.1101 95.42 18.9501 93.92 18.9501C91.62 18.9501 90.47 17.8101 90.29 15.3701H101.67L101.68 15.1701C101.68 15.1501 101.71 14.6101 101.71 14.3601C101.71 11.9401 100.99 9.75005 99.68 8.18005C98.25 6.47005 96.22 5.56006 93.8 5.56006C89 5.56006 85.52 9.16006 85.52 14.1201C85.52 16.6001 86.29 18.7101 87.73 20.2501C89.21 21.8201 91.31 22.6501 93.8 22.6501ZM93.64 9.27006C95.49 9.27006 96.44 10.1301 96.87 12.2101H90.3C90.55 10.3301 91.76 9.27006 93.64 9.27006Z" fill="white"/>
</svg>
