<svg width="38" height="47" viewBox="0 0 38 47" fill="none" xmlns="http://www.w3.org/2000/svg">
<path d="M10.1493 25.2832C4.82512 25.2832 1.56828 21.46 1.56828 14.748C1.56828 8.03613 4.82512 4.21289 10.1493 4.21289C15.4736 4.21289 18.7304 8.03613 18.7304 14.748C18.7304 21.4883 15.4736 25.2832 10.1493 25.2832ZM10.1493 21.3467C12.33 21.3467 13.7743 19.2793 13.7743 14.748C13.7743 10.2734 12.33 8.12109 10.1493 8.12109C7.96867 8.12109 6.55266 10.2734 6.52434 14.748C6.49602 19.2793 7.96867 21.3467 10.1493 21.3467ZM22.7949 25.2832C21.3789 25.2832 20.2178 24.1504 20.2461 22.7061C20.2178 21.3184 21.3789 20.1855 22.7949 20.1855C24.1543 20.1855 25.3437 21.3184 25.3721 22.7061C25.3437 24.1504 24.1543 25.2832 22.7949 25.2832ZM34.7325 4.49609L34.7325 25L29.8897 25L29.8897 9.02734H29.7764L25.1602 11.8594L25.1602 7.66797L30.2296 4.49609L34.7325 4.49609Z" fill="black"/>
<path d="M7.57715 43H5.67676L9.16309 33.1016H11.3506L14.8506 43H12.9502L12.1299 40.5527H8.39746L7.57715 43ZM8.87598 39.1172H11.6514L10.2979 35.125H10.2158L8.87598 39.1172ZM16.0264 43L16.0264 33.1016H19.7451C22.0146 33.1016 23.2314 34.4824 23.2314 36.3828C23.2314 38.2832 22.001 39.6504 19.7178 39.6504H17.8037L17.8037 43H16.0264ZM17.8037 38.1875H19.4717C20.8115 38.1875 21.4131 37.4355 21.4131 36.3828C21.4131 35.3164 20.8115 34.5918 19.4717 34.5918H17.8037V38.1875ZM24.2295 34.5918V33.1016H32.1182V34.5918H29.0693L29.0693 43H27.292L27.292 34.5918H24.2295Z" fill="black"/>
</svg>
