<svg width="45" height="47" viewBox="0 0 45 47" fill="none" xmlns="http://www.w3.org/2000/svg">
<path d="M10.2226 25.2832C4.89836 25.2832 1.64152 21.46 1.64152 14.748C1.64152 8.03613 4.89836 4.21289 10.2226 4.21289C15.5468 4.21289 18.8036 8.03613 18.8036 14.748C18.8036 21.4883 15.5468 25.2832 10.2226 25.2832ZM10.2226 21.3467C12.4032 21.3467 13.8476 19.2793 13.8476 14.748C13.8476 10.2734 12.4032 8.12109 10.2226 8.12109C8.04191 8.12109 6.6259 10.2734 6.59758 14.748C6.56926 19.2793 8.04191 21.3467 10.2226 21.3467ZM22.8682 25.2832C21.4521 25.2832 20.291 24.1504 20.3193 22.7061C20.291 21.3184 21.4521 20.1855 22.8682 20.1855C24.2275 20.1855 25.417 21.3184 25.4453 22.7061C25.417 24.1504 24.2275 25.2832 22.8682 25.2832ZM35.2022 25.2832C30.5294 25.2832 27.2159 22.7061 27.1593 19.0244H32.0303C32.0587 20.3838 33.418 21.3467 35.2305 21.3467C37.043 21.3467 38.3458 20.2988 38.3175 18.8262C38.3458 17.3535 36.9581 16.2773 34.8057 16.2773L32.8233 16.2773V12.8223H34.8057C36.6749 12.8223 37.9776 11.8311 37.9776 10.3584C37.9776 8.9707 36.8731 7.97949 35.2305 7.97949C33.5596 7.97949 32.2286 8.94238 32.2003 10.3867L27.5557 10.3867C27.6124 6.76172 30.8409 4.21289 35.2589 4.21289C39.6485 4.21289 42.6505 6.7334 42.6221 10.0752C42.6505 12.3691 40.9512 13.9834 38.6007 14.3232V14.4648C41.7442 14.833 43.4151 16.6455 43.3868 19.1943C43.4151 22.7344 39.9884 25.2832 35.2022 25.2832Z" fill="black"/>
<path d="M10.5771 43H8.67676L12.1631 33.1016H14.3506L17.8506 43H15.9502L15.1299 40.5527H11.3975L10.5771 43ZM11.876 39.1172H14.6514L13.2979 35.125H13.2158L11.876 39.1172ZM19.0264 43L19.0264 33.1016H22.7451C25.0146 33.1016 26.2314 34.4824 26.2314 36.3828C26.2314 38.2832 25.001 39.6504 22.7178 39.6504H20.8037L20.8037 43H19.0264ZM20.8037 38.1875H22.4717C23.8115 38.1875 24.4131 37.4355 24.4131 36.3828C24.4131 35.3164 23.8115 34.5918 22.4717 34.5918H20.8037V38.1875ZM27.2295 34.5918V33.1016H35.1182V34.5918H32.0693V43H30.292L30.292 34.5918H27.2295Z" fill="black"/>
</svg>
