<svg width="16" height="17" viewBox="0 0 16 17" fill="none" xmlns="http://www.w3.org/2000/svg">
<path d="M8 16.5C12.4183 16.5 16 12.9183 16 8.5C16 4.08172 12.4183 0.5 8 0.5C3.58172 0.5 0 4.08172 0 8.5C0 12.9183 3.58172 16.5 8 16.5Z" fill="#3617CE"/>
<path fill-rule="evenodd" clip-rule="evenodd" d="M6.51544 11.3333L4.22399 8.88082C3.91024 8.54504 3.92835 8.01397 4.26413 7.70022C4.5999 7.38647 5.13098 7.40458 5.44473 7.74036L7.21219 9.63215L10.01 7.01815C10.0352 6.99465 10.0614 6.97312 10.0886 6.95329L11.4042 5.72399C11.74 5.41024 12.2713 5.42835 12.5848 5.76413C12.8986 6.0999 12.8805 6.63098 12.5447 6.94473L8.52642 10.6992L8.52201 10.6945L7.13192 11.9933L6.51519 11.3333H6.51544Z" fill="white"/>
</svg>
