<svg width="141" height="40" viewBox="0 0 141 40" fill="none" xmlns="http://www.w3.org/2000/svg">
<rect x="0.5" width="140" height="40" rx="20" fill="#7E37FF"/>
<path d="M32.9361 27.8V11.5H45.0561V14.66H36.5761V17.98H44.3561V21.14H36.5761V24.64H45.2361V27.8H32.9361ZM54.9758 16.08H58.5758L54.0758 27.8H50.3758L45.8758 16.08H49.7358L52.3558 23.72L54.9758 16.08ZM65.0548 28.08C61.4748 28.08 58.9548 25.52 58.9548 21.94C58.9548 18.38 61.4748 15.8 65.0548 15.8C68.6348 15.8 71.1548 18.36 71.1548 21.94C71.1548 22.28 71.1348 22.66 71.0748 23.08H62.4948C62.7748 24.44 63.7148 25.22 65.0548 25.22C66.0748 25.22 66.9148 24.86 67.2148 24.3H70.7948C70.1948 26.54 67.8948 28.08 65.0548 28.08ZM62.4748 20.78H67.6748C67.3748 19.38 66.4548 18.62 65.0548 18.62C63.6548 18.62 62.7748 19.38 62.4748 20.78ZM73.2463 27.8V16.08H76.8063V17.28C77.5063 16.34 78.5863 15.8 80.0863 15.8C82.8063 15.8 84.6663 17.78 84.6663 21.02V27.8H81.1063V21.62C81.1063 19.84 80.3863 18.86 79.0463 18.86C77.6463 18.86 76.8063 19.96 76.8063 21.78V27.8H73.2463ZM94.0786 16.08V19.14H91.7586V27.8H88.1986V19.14H85.8786V16.08H88.1986V12.6H91.7586V16.08H94.0786ZM107.112 11.5V27.8H103.492V14.66H100.612V11.5H107.112Z" fill="white"/>
</svg>
