<svg width="141" height="40" viewBox="0 0 141 40" fill="none" xmlns="http://www.w3.org/2000/svg">
<rect x="0.5" width="140" height="40" rx="20" fill="#7E37FF"/>
<path d="M31.0123 27.8V11.5H43.1323V14.66H34.6523V17.98H42.4323V21.14H34.6523V24.64H43.3123V27.8H31.0123ZM53.052 16.08H56.652L52.152 27.8H48.452L43.952 16.08H47.812L50.432 23.72L53.052 16.08ZM63.131 28.08C59.551 28.08 57.031 25.52 57.031 21.94C57.031 18.38 59.551 15.8 63.131 15.8C66.711 15.8 69.231 18.36 69.231 21.94C69.231 22.28 69.211 22.66 69.151 23.08H60.571C60.851 24.44 61.791 25.22 63.131 25.22C64.151 25.22 64.991 24.86 65.291 24.3H68.871C68.271 26.54 65.971 28.08 63.131 28.08ZM60.551 20.78H65.751C65.451 19.38 64.531 18.62 63.131 18.62C61.731 18.62 60.851 19.38 60.551 20.78ZM71.3224 27.8V16.08H74.8824V17.28C75.5824 16.34 76.6624 15.8 78.1624 15.8C80.8824 15.8 82.7424 17.78 82.7424 21.02V27.8H79.1824V21.62C79.1824 19.84 78.4624 18.86 77.1224 18.86C75.7224 18.86 74.8824 19.96 74.8824 21.78V27.8H71.3224ZM92.1548 16.08V19.14H89.8348V27.8H86.2748V19.14H83.9548V16.08H86.2748V12.6H89.8348V16.08H92.1548ZM104.528 11.06C108.188 11.06 110.348 13.22 110.348 16.18C110.348 17.88 109.528 19.34 106.668 22.3L104.328 24.72H110.668V27.8H99.0079V25.72L104.348 20.22C106.308 18.2 106.768 17.14 106.768 16.22C106.768 15.02 106.108 14.22 104.528 14.22C103.048 14.22 102.248 15.42 102.248 16.66H98.6679C98.6679 13.46 101.088 11.06 104.528 11.06Z" fill="white"/>
</svg>
