<svg width="46" height="56" viewBox="0 0 46 56" fill="none" xmlns="http://www.w3.org/2000/svg">
<g filter="url(#filter0_d_7093_77134)">
<path d="M22 2.00195C10.9728 2.00195 2 10.6576 2 21.2952C2 24.9684 3.03814 28.8691 5.0847 32.8864C6.70728 36.0723 8.96583 39.3423 11.7969 42.6046C16.6053 48.1432 21.3363 51.6979 21.5344 51.847C21.6711 51.9483 21.8356 51.9999 22 51.9999C22.1644 51.9999 22.3289 51.9483 22.4656 51.847C22.6657 51.6979 27.3947 48.1451 32.2031 42.6046C35.0342 39.3423 37.2927 36.0723 38.9153 32.8864C40.9619 28.8691 42 24.9684 42 21.2952C42 10.6576 33.0272 2.00195 22 2.00195ZM22 14.6252C25.8118 14.6252 28.9143 17.6181 28.9143 21.2952C28.9143 24.9722 25.8118 27.9651 22 27.9651C18.1882 27.9651 15.0857 24.9722 15.0857 21.2952C15.0857 17.6181 18.1882 14.6252 22 14.6252Z" fill="#FFC345"/>
<path d="M21.9982 2.00191C21.2474 2.00191 20.5064 2.04396 19.7773 2.12231C29.7645 3.19066 37.5564 11.3819 37.5564 21.2951C37.5564 24.9684 36.5183 28.8691 34.4717 32.8863C32.8492 36.0722 30.5906 39.3422 27.7595 42.6046C24.6748 46.1574 21.6218 48.8942 19.7773 50.4384C20.8076 51.3004 21.4613 51.7915 21.5327 51.8451C21.6694 51.9464 21.8338 51.998 21.9982 51.998C22.1627 51.998 22.3271 51.9464 22.4638 51.8451C22.6639 51.696 27.393 48.1431 32.2013 42.6027C35.0324 39.3403 37.291 36.0703 38.9135 32.8844C40.9601 28.8671 41.9982 24.9665 41.9982 21.2932C41.9982 10.6557 33.0255 2 21.9982 2V2.00191Z" fill="#EAB568"/>
</g>
<circle cx="22" cy="22" r="15" fill="white"/>
<path d="M29.2633 17.6212H26.9218C26.649 17.6212 26.3895 17.5046 26.2089 17.3016L25.259 16.2327C25.1177 16.0732 24.9139 15.9824 24.7007 15.9824C24.4876 15.9824 24.2838 16.0737 24.1424 16.2327L23.3279 17.1498C23.0612 17.4496 22.6785 17.6218 22.2764 17.6218H9.45974C9.09471 18.6582 8.8567 19.7529 8.76172 20.8884H20.8611C21.0737 20.8884 21.2775 20.802 21.4243 20.6491L22.5509 19.4779C22.6917 19.3315 22.8861 19.249 23.0893 19.249H23.1357C23.3494 19.249 23.5526 19.3403 23.694 19.4999L24.6433 20.5687C24.8239 20.7723 25.0834 20.8884 25.3562 20.8884H35.2323C35.1373 19.7524 34.8993 18.6576 34.5343 17.6218H29.2627L29.2633 17.6212Z" fill="black"/>
<path d="M16.0806 27.7554C16.2932 27.7554 16.497 27.669 16.6439 27.5161L17.7705 26.3449C17.9113 26.1985 18.1057 26.116 18.3089 26.116H18.3553C18.569 26.116 18.7722 26.2073 18.9136 26.3663L19.8629 27.4352C20.0434 27.6387 20.303 27.7548 20.5758 27.7548H33.9596C34.4611 26.7228 34.8283 25.6154 35.047 24.4552H22.2004C21.9276 24.4552 21.6681 24.3386 21.4875 24.1356L20.5382 23.0667C20.3969 22.9072 20.1931 22.8164 19.9799 22.8164C19.7668 22.8164 19.563 22.9077 19.4216 23.0667L18.6071 23.9838C18.3404 24.2836 17.9577 24.4558 17.5551 24.4558H8.94141C9.16009 25.6159 9.52787 26.7233 10.0287 27.7554H16.0806Z" fill="black"/>
<path d="M25.5856 14.0511C25.7982 14.0511 26.002 13.9648 26.1489 13.8118L27.2754 12.6406C27.4163 12.4943 27.6106 12.4118 27.8139 12.4118H27.8603C28.074 12.4118 28.2772 12.5031 28.4186 12.6626L29.3678 13.7315C29.5484 13.9351 29.808 14.0511 30.0808 14.0511H32.626C30.2023 10.8418 26.3471 8.76562 22.0044 8.76562C17.6617 8.76562 13.8065 10.8418 11.3828 14.0511H25.5856Z" fill="black"/>
<path d="M20.4732 31.0275H16.9924C16.7196 31.0275 16.4601 30.9108 16.2795 30.7078L15.3302 29.639C15.1889 29.4794 14.9851 29.3887 14.7719 29.3887C14.5588 29.3887 14.355 29.48 14.2136 29.639L13.3991 30.556C13.1324 30.8558 12.7497 31.028 12.3471 31.028H12.293C14.7178 33.6163 18.1709 35.2364 22.005 35.2364C25.8392 35.2364 29.2917 33.6163 31.7171 31.028H20.4732V31.0275Z" fill="black"/>
<defs>
<filter id="filter0_d_7093_77134" x="0.887054" y="0.887054" width="44.4518" height="54.4518" filterUnits="userSpaceOnUse" color-interpolation-filters="sRGB">
<feFlood flood-opacity="0" result="BackgroundImageFix"/>
<feColorMatrix in="SourceAlpha" type="matrix" values="0 0 0 0 0 0 0 0 0 0 0 0 0 0 0 0 0 0 127 0" result="hardAlpha"/>
<feOffset dx="1.11295" dy="1.11295"/>
<feGaussianBlur stdDeviation="1.11295"/>
<feColorMatrix type="matrix" values="0 0 0 0 0.137255 0 0 0 0 0.121569 0 0 0 0 0.12549 0 0 0 0.2 0"/>
<feBlend mode="normal" in2="BackgroundImageFix" result="effect1_dropShadow_7093_77134"/>
<feBlend mode="normal" in="SourceGraphic" in2="effect1_dropShadow_7093_77134" result="shape"/>
</filter>
</defs>
</svg>
