<svg width="225" height="57" viewBox="0 0 225 57" fill="none" xmlns="http://www.w3.org/2000/svg">
<path d="M0.524063 16.696H26.6841V22.336H0.524063V16.696ZM1.67606 2.464C6.93206 1.672 11.4441 1.264 15.3081 1.264C23.1321 1.264 25.5321 2.872 25.5321 8.152C25.5321 10.312 25.2441 12.952 24.5961 16.096L17.1801 15.616C17.6121 12.784 17.7801 11.464 17.7801 10.168C17.7801 8.224 17.2041 7.744 14.6601 7.744C11.9961 7.744 8.92406 7.984 2.22806 8.68L1.67606 2.464ZM29.5669 16.48H36.4069V18.256H53.5669V22.936H29.5669V16.48ZM27.5269 10.24V6.28H34.6789C34.7269 6.112 34.7269 5.92 34.7269 5.728C34.7269 5.272 34.4629 5.08 33.8149 5.08C32.7109 5.08 31.2229 5.128 28.0069 5.344L27.7669 1.288C30.3829 1.024 32.7109 0.904 34.7989 0.904C39.1669 0.904 40.2709 1.6 40.2709 4.024C40.2709 4.696 40.1989 5.392 40.0549 6.28H40.5109V10.24H33.6709C33.6469 10.408 33.6469 10.552 33.6469 10.696C33.6469 11.32 33.9109 11.512 34.7509 11.512C35.9509 11.512 37.1989 11.44 40.7509 11.224L40.9909 15.208C38.3509 15.568 35.8549 15.76 33.5749 15.76C29.4469 15.76 27.8869 14.872 27.8869 12.472C27.8869 11.848 27.9829 11.08 28.1749 10.24H27.5269ZM41.4949 16.576V0.663999H46.7749V5.92H47.7589V0.663999H53.0869V17.416H47.7589V10.96H46.7749V16.576H41.4949ZM54.2897 16.936H80.4497V22.336H54.2897V16.936ZM55.2017 1.936C62.8817 1.048 71.3777 1.048 79.0577 1.936L78.8177 7.072C71.8097 6.592 68.3057 6.448 63.5537 6.616C63.3857 7.36 63.3377 7.936 63.3377 8.752C63.3377 10 63.7217 10.336 65.0897 10.336C69.2897 10.336 75.7937 10.12 79.0577 9.952L79.2977 15.352C75.8897 15.592 69.0017 15.856 64.5617 15.856C58.0817 15.856 55.9217 14.56 55.9217 10.672C55.9217 9.448 56.0417 8.248 56.3057 7.024C56.0177 7.024 55.7297 7.048 55.4417 7.072L55.2017 1.936ZM85.9772 16.816H95.5772V15.544C89.8412 14.824 86.6492 12.304 86.6492 8.68H94.1612C94.7132 9.76 95.7212 10.144 99.0812 10.144C102.921 10.144 104.025 9.304 104.025 8.248C104.025 7.192 102.921 6.352 99.0812 6.352C95.6972 6.352 94.3292 7.072 94.1612 8.44L86.6492 7.96C86.8892 3.664 91.1372 0.904 99.0812 0.904C107.241 0.904 111.465 3.808 111.465 8.32C111.465 12.136 108.441 14.824 102.537 15.544V16.816H112.137V22.336H85.9772V16.816ZM113.892 16.576H120.972V18.256H138.228V22.936H113.892V16.576ZM112.86 15.976V12.376H139.02V15.976H112.86ZM113.532 7.984C114.18 7.912 114.9 7.816 115.692 7.768C115.668 6.832 115.908 5.992 116.412 5.248C115.644 5.296 114.852 5.344 114.012 5.416L113.772 1.504C119.892 0.711999 131.988 0.711999 138.108 1.504L137.868 5.416C137.1 5.368 136.356 5.296 135.636 5.248C136.116 5.992 136.356 6.832 136.332 7.768C137.052 7.84 137.748 7.912 138.348 7.984L138.108 12.016C128.316 11.272 123.516 11.272 113.772 12.016L113.532 7.984ZM122.436 7.432C124.788 7.384 127.236 7.384 129.564 7.432C129.66 6.568 129.492 5.68 129.108 4.912C126.996 4.84 125.028 4.84 122.916 4.912C122.532 5.68 122.34 6.568 122.436 7.432ZM163.148 0.663999H169.988V22.936H163.148V0.663999ZM144.788 11.968H151.268C151.316 14.848 152.06 16.576 153.644 16.576C155.276 16.576 156.044 14.728 156.044 11.608C156.044 8.368 155.276 6.52 153.644 6.52C152.06 6.52 151.316 8.368 151.268 11.728L144.788 11.248C144.884 4.504 147.86 0.951999 153.644 0.951999C159.548 0.951999 162.524 4.624 162.524 11.608C162.524 18.592 159.524 22.288 153.644 22.288C147.86 22.288 144.884 18.736 144.788 11.968ZM173.59 16H180.43V18.016H197.59V22.936H173.59V16ZM171.79 10.24V0.951999H176.95V3.52H179.47C179.374 2.776 179.254 2.008 179.11 1.192L184.15 0.951999C184.51 2.2 184.702 3.904 184.75 5.68H185.758V0.663999H190.918V16.336H185.758V10.72H184.774V15.28H176.614C173.206 15.28 171.79 13.792 171.79 10.24ZM176.95 8.776C176.95 10.288 177.166 10.72 178.654 10.72H179.374C179.518 9.736 179.614 8.776 179.638 7.84H176.95V8.776ZM191.782 17.176V0.663999H197.11V17.176H191.782ZM198.313 17.176H224.473V22.336H198.313V17.176ZM199.225 1.816C206.905 0.927999 215.401 0.927999 223.081 1.816L222.841 5.944C216.073 5.488 212.569 5.32 208.057 5.464L207.721 6.808H222.481V10.408H207.313C207.337 11.536 207.745 11.848 209.065 11.848C213.265 11.848 219.817 11.656 223.081 11.464L223.321 15.832C219.913 16.096 213.025 16.336 208.585 16.336C202.105 16.336 199.945 15.04 199.945 11.152C199.945 9.52 200.209 7.792 200.785 5.848C200.353 5.896 199.921 5.92 199.465 5.944L199.225 1.816ZM43.4087 48.128C47.2487 49.448 50.5607 49.784 53.5847 49.784C55.7927 49.784 56.2727 49.616 56.2727 49.04C56.2727 48.464 55.7447 48.32 53.9927 48.32C46.1927 48.32 42.5447 46.352 42.5447 41.912C42.5447 37.52 46.6247 35.24 54.5927 35.24C58.0727 35.24 61.6247 35.792 64.6967 36.92L64.0007 43.04C60.2327 41.96 57.2807 41.696 54.3767 41.696C52.4807 41.696 51.7607 41.864 51.7607 42.44C51.7607 43.016 52.3607 43.16 53.8487 43.16C62.2487 43.16 65.4647 45.104 65.4647 49.544C65.4647 54.104 62.0087 56.36 55.0007 56.36C50.4647 56.36 46.1927 55.784 42.6887 54.44L43.4087 48.128ZM72.8953 49.376C72.8953 50.312 73.9993 50.864 75.6553 50.864C77.5033 50.864 79.1353 50.648 82.3753 49.856L83.5753 54.248C81.4633 55.688 78.7753 56.36 75.2953 56.36C69.3913 56.36 65.9353 53.288 65.9353 48.056C65.9353 43.088 69.6553 39.8 75.2953 39.8C81.1033 39.8 84.1753 42.68 84.1753 48.104V49.376H72.8953ZM72.9673 46.448H77.8633C77.8633 45.56 76.7353 44.96 75.4153 44.96C74.0953 44.96 72.9673 45.56 72.9673 46.448ZM85.9791 41.408C88.5711 40.376 92.5311 39.8 95.1951 39.8C99.8271 39.8 102.059 41.12 102.059 45.08V55.88H95.4591V50.264H94.8591C93.0831 50.264 91.8351 50.408 91.8351 51.248C91.8351 51.968 92.8671 52.112 94.3791 52.112H94.6191L95.2191 55.76C94.2831 56.12 92.5551 56.36 90.9471 56.36C86.7231 56.36 84.6591 54.656 84.6591 51.848C84.6591 48.68 87.7071 46.304 93.3231 46.304H95.4591V46.256C95.4591 45.152 95.3391 45.008 94.0191 45.008C91.6911 45.008 88.4991 45.656 86.4591 46.256L85.9791 41.408ZM103.379 49.904C106.019 50.744 108.131 51.104 110.195 51.104C111.707 51.104 112.043 50.984 112.043 50.624C112.043 50.264 111.659 50.144 110.483 50.144C105.107 50.144 102.779 48.512 102.779 45.032C102.779 41.576 105.563 39.8 111.035 39.8C113.435 39.8 115.859 40.232 117.971 40.928L117.491 45.92C114.923 45.248 113.051 44.96 111.059 44.96C109.763 44.96 109.259 45.08 109.259 45.44C109.259 45.8 109.691 45.92 110.699 45.92C116.459 45.92 118.499 47.528 118.499 51.008C118.499 54.584 116.123 56.36 111.323 56.36C108.203 56.36 105.275 55.904 102.899 55.04L103.379 49.904ZM128.334 56.36C122.814 56.36 119.142 53.192 118.974 48.416H125.718C125.862 49.712 126.846 50.6 128.334 50.6C129.942 50.6 130.974 49.544 130.974 48.056C130.974 46.568 129.942 45.56 128.334 45.56C126.846 45.56 125.742 46.52 125.718 48.176L118.974 47.696C119.166 42.944 122.838 39.8 128.334 39.8C133.974 39.8 137.694 43.112 137.694 48.08C137.694 53.048 133.974 56.36 128.334 56.36ZM138.41 55.88V40.28H145.01V55.88H138.41ZM145.25 41.408C146.474 40.496 148.658 39.8 150.338 39.8C153.77 39.8 155.09 41.504 155.09 45.608V55.88H148.49V47.072C148.49 46.256 148.274 45.992 147.626 45.992C147.194 45.992 146.666 46.184 145.73 46.688L145.25 41.408ZM162.183 48.8C166.263 49.736 168.255 50 171.663 50C173.727 50 174.639 49.736 174.639 49.136C174.639 48.344 172.503 47.984 166.143 47.696V43.448C172.695 43.136 174.351 42.872 174.351 42.176C174.351 41.696 173.607 41.528 171.663 41.528C169.335 41.528 165.375 42.2 162.663 43.064L161.223 37.784C163.743 36.344 168.855 35.24 173.007 35.24C178.791 35.24 181.959 37.136 181.959 40.592C181.959 42.704 180.759 44.456 178.671 45.512C181.167 46.424 182.463 48.056 182.463 50.336C182.463 54.464 179.199 56.36 172.143 56.36C168.039 56.36 164.247 55.76 160.743 54.536L162.183 48.8Z" fill="#222222"/>
</svg>
