<svg width="273" height="56" viewBox="0 0 273 56" fill="none" xmlns="http://www.w3.org/2000/svg">
<path d="M14.9302 9.84H22.1302V20.88H11.8582C3.96216 20.88 0.650156 17.4 0.650156 10.56C0.650156 3.72 3.96216 0.24 11.8582 0.24C15.5302 0.24 18.2662 0.551999 21.1702 1.08L20.6902 7.608C18.1222 7.344 15.5302 7.08 12.9622 7.08C10.5622 7.08 9.05016 8.16 9.05016 10.56C9.05016 12.96 10.5622 14.04 12.9622 14.04H14.9302V9.84ZM23.0855 20.88V5.28H29.6855V20.88H23.0855ZM29.9255 6.408C31.1975 5.28 32.6135 4.8 34.2935 4.8C37.7255 4.8 39.0455 6.504 39.0455 10.608V13.752L32.4455 14.232V11.592C32.4455 11.112 32.2775 10.992 31.8455 10.992C31.5095 10.992 31.0055 11.232 30.4055 11.688L29.9255 6.408ZM40.9673 6.408C43.5593 5.376 47.5193 4.8 50.1833 4.8C54.8153 4.8 57.0473 6.12 57.0473 10.08V20.88H50.4473V15.264H49.8473C48.0713 15.264 46.8233 15.408 46.8233 16.248C46.8233 16.968 47.8553 17.112 49.3673 17.112H49.6073L50.2073 20.76C49.2713 21.12 47.5433 21.36 45.9353 21.36C41.7113 21.36 39.6473 19.656 39.6473 16.848C39.6473 13.68 42.6953 11.304 48.3113 11.304H50.4473V11.256C50.4473 10.152 50.3273 10.008 49.0073 10.008C46.6793 10.008 43.4873 10.656 41.4473 11.256L40.9673 6.408ZM58.0073 20.88V5.28H64.6073V20.88H58.0073ZM64.8473 6.408C66.0713 5.496 68.2553 4.8 69.9353 4.8C73.3673 4.8 74.6873 6.504 74.6873 10.608V20.88H68.0873V12.072C68.0873 11.256 67.8713 10.992 67.2233 10.992C66.7913 10.992 66.2633 11.184 65.3273 11.688L64.8473 6.408ZM88.2558 20.88V13.8C88.2558 11.904 87.2478 10.968 85.1838 10.968C83.2638 10.968 82.1358 11.856 82.1358 13.368C82.1358 14.952 83.3598 15.816 85.9278 15.816H87.2958L88.0158 20.424C86.4318 21.024 84.7038 21.36 83.0238 21.36C78.2718 21.36 75.4158 18.408 75.4158 13.44C75.4158 8.256 78.4398 4.824 83.0238 4.824C85.0878 4.824 86.9358 5.328 88.2558 6.264V0.719999H94.8558V20.88H88.2558ZM112.377 21.36C105.249 21.36 100.617 17.352 100.377 11.256H108.801C108.969 12.816 110.241 14.16 112.377 14.16C114.657 14.16 115.977 12.576 115.977 10.776C115.977 8.976 114.681 7.44 112.377 7.44C110.217 7.44 108.825 8.808 108.801 11.016L100.377 10.296C100.641 4.224 105.273 0.24 112.377 0.24C119.673 0.24 124.377 4.44 124.377 10.8C124.377 17.16 119.673 21.36 112.377 21.36ZM125.085 5.28H131.685V6.24C133.005 5.304 134.853 4.8 136.917 4.8C141.501 4.8 144.525 8.232 144.525 13.416C144.525 18.384 141.669 21.336 136.917 21.336C135.237 21.336 133.509 21.192 131.925 20.592L132.645 15.672H134.013C136.581 15.672 137.805 14.808 137.805 13.224C137.805 11.712 136.677 10.824 134.757 10.824C132.693 10.824 131.685 11.88 131.685 13.656V25.2H125.085V5.28ZM151.962 14.376C151.962 15.312 153.066 15.864 154.722 15.864C156.57 15.864 158.202 15.648 161.442 14.856L162.642 19.248C160.53 20.688 157.842 21.36 154.362 21.36C148.458 21.36 145.002 18.288 145.002 13.056C145.002 8.088 148.722 4.8 154.362 4.8C160.17 4.8 163.242 7.68 163.242 13.104V14.376H151.962ZM152.034 11.448H156.93C156.93 10.56 155.802 9.96 154.482 9.96C153.162 9.96 152.034 10.56 152.034 11.448ZM164.085 20.88V5.28H170.685V20.88H164.085ZM170.925 6.408C172.149 5.496 174.333 4.8 176.013 4.8C179.445 4.8 180.765 6.504 180.765 10.608V20.88H174.165V12.072C174.165 11.256 173.949 10.992 173.301 10.992C172.869 10.992 172.341 11.184 171.405 11.688L170.925 6.408ZM204.659 6.84H194.339V8.28H204.419V13.08H194.339V14.52H204.779V20.88H186.539V0.719999H204.659V6.84ZM210.414 20.88L205.254 5.28H212.358L214.326 15.24L216.27 5.28H223.374L218.214 20.88H210.414ZM229.727 14.376C229.727 15.312 230.831 15.864 232.487 15.864C234.335 15.864 235.967 15.648 239.207 14.856L240.407 19.248C238.295 20.688 235.607 21.36 232.127 21.36C226.223 21.36 222.767 18.288 222.767 13.056C222.767 8.088 226.487 4.8 232.127 4.8C237.935 4.8 241.007 7.68 241.007 13.104V14.376H229.727ZM229.799 11.448H234.695C234.695 10.56 233.567 9.96 232.247 9.96C230.927 9.96 229.799 10.56 229.799 11.448ZM241.851 20.88V5.28H248.451V20.88H241.851ZM248.691 6.408C249.915 5.496 252.099 4.8 253.779 4.8C257.211 4.8 258.531 6.504 258.531 10.608V20.88H251.931V12.072C251.931 11.256 251.715 10.992 251.067 10.992C250.635 10.992 250.107 11.184 249.171 11.688L248.691 6.408ZM259.5 5.28H262.044V0.671999H268.644V5.28H271.86V10.68H268.644V13.872C268.644 15 268.884 15.24 270.132 15.24H272.34L272.1 20.88H269.196C263.796 20.88 262.044 19.584 262.044 14.832V10.68H259.5V5.28ZM67.4087 47.128C71.2487 48.448 74.5607 48.784 77.5847 48.784C79.7927 48.784 80.2727 48.616 80.2727 48.04C80.2727 47.464 79.7447 47.32 77.9927 47.32C70.1927 47.32 66.5447 45.352 66.5447 40.912C66.5447 36.52 70.6247 34.24 78.5927 34.24C82.0727 34.24 85.6247 34.792 88.6967 35.92L88.0007 42.04C84.2327 40.96 81.2807 40.696 78.3767 40.696C76.4807 40.696 75.7607 40.864 75.7607 41.44C75.7607 42.016 76.3607 42.16 77.8487 42.16C86.2487 42.16 89.4647 44.104 89.4647 48.544C89.4647 53.104 86.0087 55.36 79.0007 55.36C74.4647 55.36 70.1927 54.784 66.6887 53.44L67.4087 47.128ZM96.8953 48.376C96.8953 49.312 97.9993 49.864 99.6553 49.864C101.503 49.864 103.135 49.648 106.375 48.856L107.575 53.248C105.463 54.688 102.775 55.36 99.2953 55.36C93.3913 55.36 89.9353 52.288 89.9353 47.056C89.9353 42.088 93.6553 38.8 99.2953 38.8C105.103 38.8 108.175 41.68 108.175 47.104V48.376H96.8953ZM96.9673 45.448H101.863C101.863 44.56 100.735 43.96 99.4153 43.96C98.0953 43.96 96.9673 44.56 96.9673 45.448ZM109.979 40.408C112.571 39.376 116.531 38.8 119.195 38.8C123.827 38.8 126.059 40.12 126.059 44.08V54.88H119.459V49.264H118.859C117.083 49.264 115.835 49.408 115.835 50.248C115.835 50.968 116.867 51.112 118.379 51.112H118.619L119.219 54.76C118.283 55.12 116.555 55.36 114.947 55.36C110.723 55.36 108.659 53.656 108.659 50.848C108.659 47.68 111.707 45.304 117.323 45.304H119.459V45.256C119.459 44.152 119.339 44.008 118.019 44.008C115.691 44.008 112.499 44.656 110.459 45.256L109.979 40.408ZM127.379 48.904C130.019 49.744 132.131 50.104 134.195 50.104C135.707 50.104 136.043 49.984 136.043 49.624C136.043 49.264 135.659 49.144 134.483 49.144C129.107 49.144 126.779 47.512 126.779 44.032C126.779 40.576 129.563 38.8 135.035 38.8C137.435 38.8 139.859 39.232 141.971 39.928L141.491 44.92C138.923 44.248 137.051 43.96 135.059 43.96C133.763 43.96 133.259 44.08 133.259 44.44C133.259 44.8 133.691 44.92 134.699 44.92C140.459 44.92 142.499 46.528 142.499 50.008C142.499 53.584 140.123 55.36 135.323 55.36C132.203 55.36 129.275 54.904 126.899 54.04L127.379 48.904ZM152.334 55.36C146.814 55.36 143.142 52.192 142.974 47.416H149.718C149.862 48.712 150.846 49.6 152.334 49.6C153.942 49.6 154.974 48.544 154.974 47.056C154.974 45.568 153.942 44.56 152.334 44.56C150.846 44.56 149.742 45.52 149.718 47.176L142.974 46.696C143.166 41.944 146.838 38.8 152.334 38.8C157.974 38.8 161.694 42.112 161.694 47.08C161.694 52.048 157.974 55.36 152.334 55.36ZM162.41 54.88V39.28H169.01V54.88H162.41ZM169.25 40.408C170.474 39.496 172.658 38.8 174.338 38.8C177.77 38.8 179.09 40.504 179.09 44.608V54.88H172.49V46.072C172.49 45.256 172.274 44.992 171.626 44.992C171.194 44.992 170.666 45.184 169.73 45.688L169.25 40.408ZM186.183 47.8C190.263 48.736 192.255 49 195.663 49C197.727 49 198.639 48.736 198.639 48.136C198.639 47.344 196.503 46.984 190.143 46.696V42.448C196.695 42.136 198.351 41.872 198.351 41.176C198.351 40.696 197.607 40.528 195.663 40.528C193.335 40.528 189.375 41.2 186.663 42.064L185.223 36.784C187.743 35.344 192.855 34.24 197.007 34.24C202.791 34.24 205.959 36.136 205.959 39.592C205.959 41.704 204.759 43.456 202.671 44.512C205.167 45.424 206.463 47.056 206.463 49.336C206.463 53.464 203.199 55.36 196.143 55.36C192.039 55.36 188.247 54.76 184.743 53.536L186.183 47.8Z" fill="#222222"/>
</svg>
