<svg width="261" height="76" viewBox="0 0 261 76" fill="none" xmlns="http://www.w3.org/2000/svg">
<path d="M28.2548 21.7998V32.8198H0.894766V0.899765H13.8148V21.7998H28.2548ZM40.4059 22.5218C40.4059 24.0038 42.1539 24.8778 44.7759 24.8778C47.7019 24.8778 50.2859 24.5358 55.4159 23.2818L57.3159 30.2358C53.9719 32.5158 49.7159 33.5798 44.2059 33.5798C34.8579 33.5798 29.3859 28.7158 29.3859 20.4318C29.3859 12.5658 35.2759 7.35977 44.2059 7.35977C53.4019 7.35977 58.2659 11.9198 58.2659 20.5078V22.5218H40.4059ZM40.5199 17.8858H48.2719C48.2719 16.4798 46.4859 15.5298 44.3959 15.5298C42.3059 15.5298 40.5199 16.4798 40.5199 17.8858ZM59.6018 8.11976H63.6298V0.823763H74.0798V8.11976H79.1718V16.6698H74.0798V21.7238C74.0798 23.5098 74.4598 23.8898 76.4358 23.8898H79.9318L79.5518 32.8198H74.9538C66.4038 32.8198 63.6298 30.7678 63.6298 23.2438V16.6698H59.6018V8.11976ZM81.0881 0.899765H92.8681L91.7281 10.5898L81.0881 13.2498V0.899765ZM94.9433 23.3578C99.1233 24.6878 102.467 25.2578 105.735 25.2578C108.129 25.2578 108.661 25.0678 108.661 24.4978C108.661 23.9278 108.053 23.7378 106.191 23.7378C97.6793 23.7378 93.9933 21.1538 93.9933 15.6438C93.9933 10.1718 98.4013 7.35977 107.065 7.35977C110.865 7.35977 114.703 8.04377 118.047 9.14576L117.287 17.0498C113.221 15.9858 110.257 15.5298 107.103 15.5298C105.051 15.5298 104.253 15.7198 104.253 16.2898C104.253 16.8598 104.937 17.0498 106.533 17.0498C115.653 17.0498 118.883 19.5958 118.883 25.1058C118.883 30.7678 115.121 33.5798 107.521 33.5798C102.581 33.5798 97.9453 32.8578 94.1833 31.4898L94.9433 23.3578ZM140.543 0.899765V32.8198H127.623V0.899765H140.543ZM142.059 32.8198V8.11976H152.509V32.8198H142.059ZM152.889 9.90577C154.827 8.46176 158.285 7.35977 160.945 7.35977C166.379 7.35977 168.469 10.0578 168.469 16.5558V32.8198H158.019V18.8738C158.019 17.5818 157.677 17.1638 156.651 17.1638C155.967 17.1638 155.131 17.4678 153.649 18.2658L152.889 9.90577ZM177.041 32.8198L168.871 8.11976H180.119L183.235 23.8898L186.313 8.11976H197.561L189.391 32.8198H177.041ZM198.317 14.1998V8.11976H208.767V14.9598L198.317 14.1998ZM198.317 32.8198V15.7198H208.767V32.8198H198.317ZM210.303 8.11976H214.331V0.823763H224.781V8.11976H229.873V16.6698H224.781V21.7238C224.781 23.5098 225.161 23.8898 227.137 23.8898H230.633L230.253 32.8198H225.655C217.105 32.8198 214.331 30.7678 214.331 23.2438V16.6698H210.303V8.11976ZM242.429 22.5218C242.429 24.0038 244.177 24.8778 246.799 24.8778C249.725 24.8778 252.309 24.5358 257.439 23.2818L259.339 30.2358C255.995 32.5158 251.739 33.5798 246.229 33.5798C236.881 33.5798 231.409 28.7158 231.409 20.4318C231.409 12.5658 237.299 7.35977 246.229 7.35977C255.425 7.35977 260.289 11.9198 260.289 20.5078V22.5218H242.429ZM242.543 17.8858H250.295C250.295 16.4798 248.509 15.5298 246.419 15.5298C244.329 15.5298 242.543 16.4798 242.543 17.8858ZM67.7889 53.7298H51.8289V57.1498H67.2189V66.8398H51.8289V74.8198H39.0989V42.8998H67.7889V53.7298ZM69.3059 74.8198V50.1198H79.7559V74.8198H69.3059ZM80.1359 51.9058C82.1499 50.1198 84.3919 49.3598 87.0519 49.3598C92.4859 49.3598 94.5759 52.0578 94.5759 58.5558V63.5338L84.1259 64.2938V60.1138C84.1259 59.3538 83.8599 59.1638 83.1759 59.1638C82.6439 59.1638 81.8459 59.5438 80.8959 60.2658L80.1359 51.9058ZM96.0989 56.1998V50.1198H106.549V56.9598L96.0989 56.1998ZM96.0989 74.8198V57.7198H106.549V74.8198H96.0989ZM118.725 64.5218C118.725 66.0038 120.473 66.8778 123.095 66.8778C126.021 66.8778 128.605 66.5358 133.735 65.2818L135.635 72.2358C132.291 74.5158 128.035 75.5798 122.525 75.5798C113.177 75.5798 107.705 70.7158 107.705 62.4318C107.705 54.5658 113.595 49.3598 122.525 49.3598C131.721 49.3598 136.585 53.9198 136.585 62.5078V64.5218H118.725ZM118.839 59.8858H126.591C126.591 58.4798 124.805 57.5298 122.715 57.5298C120.625 57.5298 118.839 58.4798 118.839 59.8858ZM137.921 74.8198V50.1198H148.371V74.8198H137.921ZM148.751 51.9058C150.689 50.4618 154.147 49.3598 156.807 49.3598C162.241 49.3598 164.331 52.0578 164.331 58.5558V74.8198H153.881V60.8738C153.881 59.5818 153.539 59.1638 152.513 59.1638C151.829 59.1638 150.993 59.4678 149.511 60.2658L148.751 51.9058ZM185.814 74.8198V63.6098C185.814 60.6078 184.218 59.1258 180.95 59.1258C177.91 59.1258 176.124 60.5318 176.124 62.9258C176.124 65.4338 178.062 66.8018 182.128 66.8018H184.294L185.434 74.0978C182.926 75.0478 180.19 75.5798 177.53 75.5798C170.006 75.5798 165.484 70.9058 165.484 63.0398C165.484 54.8318 170.272 49.3978 177.53 49.3978C180.798 49.3978 183.724 50.1958 185.814 51.6778V42.8998H196.264V74.8198H185.814ZM198.349 65.3578C202.529 66.6878 205.873 67.2578 209.141 67.2578C211.535 67.2578 212.067 67.0678 212.067 66.4978C212.067 65.9278 211.459 65.7378 209.597 65.7378C201.085 65.7378 197.399 63.1538 197.399 57.6438C197.399 52.1718 201.807 49.3598 210.471 49.3598C214.271 49.3598 218.109 50.0438 221.453 51.1458L220.693 59.0498C216.627 57.9858 213.663 57.5298 210.509 57.5298C208.457 57.5298 207.659 57.7198 207.659 58.2898C207.659 58.8598 208.343 59.0498 209.939 59.0498C219.059 59.0498 222.289 61.5958 222.289 67.1058C222.289 72.7678 218.527 75.5798 210.927 75.5798C205.987 75.5798 201.351 74.8578 197.589 73.4898L198.349 65.3578Z" fill="#7E37FF"/>
</svg>
